<svg width="89" height="26" viewBox="0 0 89 26" fill="none" xmlns="http://www.w3.org/2000/svg">
<path d="M62.3461 20.8641H57.4178V14.7844H62.3461C64.8342 14.7844 65.217 15.4486 65.217 17.8498C65.217 20.1999 64.8342 20.8641 62.3461 20.8641ZM57.4178 5.07737H61.7241C64.3557 5.07737 64.595 5.84371 64.595 7.78513C64.595 9.87981 64.2122 10.4929 61.7241 10.4929H57.4178V5.07737ZM67.6094 12.4854C69.2841 11.2081 69.5233 9.21564 69.5233 7.4275C69.5233 2.82942 67.2745 0.836914 61.9633 0.836914H55.0254C53.1593 0.836914 52.633 1.14345 52.633 3.13595V22.7544C52.633 24.798 53.1115 25.0535 55.0254 25.0535H62.5854C67.9443 25.0535 70.1453 23.061 70.1453 18.1564C70.1453 15.9084 69.8104 13.6605 67.6094 12.4854Z" fill="#20A6FF"/>
<path d="M74.1651 7.93738C72.299 7.93738 71.8684 8.3461 71.8684 10.2364V22.8045C71.8684 24.6948 72.299 25.1035 74.1651 25.1035C76.0312 25.1035 76.4618 24.6948 76.4618 22.8045V10.2364C76.4618 8.3461 76.079 7.93738 74.1651 7.93738Z" fill="#20A6FF"/>
<path d="M9.71313 20.8641H4.78479V14.7844H9.71313C12.2012 14.7844 12.584 15.4486 12.584 17.8498C12.584 20.1999 12.2012 20.8641 9.71313 20.8641ZM4.78479 5.07737H9.0911C11.7227 5.07737 11.962 5.84371 11.962 7.78513C11.962 9.87981 11.5792 10.4929 9.0911 10.4929H4.78479V5.07737ZM14.9764 12.4854C16.6511 11.2081 16.8903 9.21564 16.8903 7.4275C16.8903 2.77833 14.5936 0.836914 9.33034 0.836914H2.3924C0.478479 0.836914 0 1.09236 0 3.13595V22.7544C0 24.798 0.478479 25.0535 2.3924 25.0535H9.95236C15.3113 25.0535 17.5123 23.061 17.5123 18.1564C17.5123 15.9084 17.1774 13.6605 14.9764 12.4854Z" fill="#20A6FF"/>
<path d="M29.3322 19.7922C27.5618 20.5585 26.1742 21.1205 25.1216 21.1205C24.4517 21.1205 23.8297 21.1205 23.8297 16.5224C23.8297 11.8733 24.4995 11.8733 25.1216 11.8733C26.1742 11.8733 27.5618 12.3842 29.3322 13.2527V19.7922ZM31.581 7.93934C30.0977 7.93934 29.5714 8.19479 29.38 9.21659C27.3226 8.29697 25.6479 7.73499 23.9732 7.73499C20.576 7.73499 19.2841 10.0851 19.2841 16.4713C19.2841 22.8576 20.576 25.2077 23.9732 25.2077C25.7436 25.2077 27.4661 24.6457 29.4279 23.7261C29.5714 24.7479 30.1456 25.0033 31.6289 25.0033C33.495 25.0033 33.9256 24.5946 33.9256 22.7043V10.2384C33.8777 8.29697 33.4471 7.93934 31.581 7.93934Z" fill="#20A6FF"/>
<path d="M45.9323 7.78687C44.2576 7.78687 42.5829 8.34885 40.5255 9.26847C40.3819 8.19558 39.8078 7.99122 38.3245 7.99122C36.4584 7.99122 36.0278 8.34885 36.0278 10.2903V22.8584C36.0278 24.7487 36.4584 25.1574 38.3245 25.1574C40.1905 25.1574 40.6212 24.7487 40.6212 22.8584V13.2535C42.3915 12.436 43.7791 11.874 44.7839 11.874C45.1189 11.874 45.5017 11.9251 45.7409 12.5382C45.9323 13.2024 45.8844 14.1731 45.8844 14.1731V22.7562C45.8844 24.6465 46.3151 25.0552 48.229 25.0552C50.1429 25.0552 50.5735 24.6465 50.5735 22.7562V14.3774C50.5735 14.3774 50.5257 12.8448 50.43 12.1806C49.6644 9.06411 48.4204 7.78687 45.9323 7.78687Z" fill="#20A6FF"/>
<path d="M86.0315 5.12962C86.3665 5.07853 88.9024 5.38507 88.9981 3.03494C89.0459 1.40006 88.1847 0.889165 86.3186 0.838076C85.3617 0.786986 84.3569 0.786986 83.3999 0.991345C82.2515 1.24679 81.2946 1.75769 80.864 2.62622C80.4812 3.29039 80.2898 4.21 80.0984 5.43616C80.0027 6.20251 79.9548 6.96885 79.9548 7.93956C78.3759 7.93956 77.6581 8.09283 77.6581 9.93206C77.6581 11.7202 78.4237 11.8735 79.9548 11.8735V22.8067C79.9548 24.697 80.3855 25.1057 82.2515 25.1057C84.1176 25.1057 84.5482 24.697 84.5482 22.8067V11.8735H85.7444C87.3713 11.8735 88.2325 11.7713 88.2325 9.93206C88.2325 8.04174 87.4191 7.93956 85.7444 7.93956H84.5482C84.5482 6.10033 84.309 5.12962 86.0315 5.12962Z" fill="#20A6FF"/>
<path d="M74.1652 4.6685C72.7776 5.23048 71.9163 3.18689 72.3948 2.31837C72.5383 2.01183 73.1125 1.24548 74.1173 1.55202C75.5527 1.90965 75.5527 4.10651 74.1652 4.6685ZM74.9786 0.121504C72.8733 -0.440483 71.7249 1.09221 71.4378 1.75638C70.3852 3.6467 72.2034 7.83606 75.0264 6.661C77.8973 5.48593 77.8973 0.938941 74.9786 0.121504Z" fill="#C4D600"/>
</svg>
